<svg xmlns="http://www.w3.org/2000/svg" xmlns:xlink="http://www.w3.org/1999/xlink" width="35.741" height="32.7" viewBox="0 0 35.741 32.7">
  <defs>
    <filter id="iconfinder_miscellaneous-50_809448" x="0" y="0" width="35.741" height="32.7" filterUnits="userSpaceOnUse">
      <feOffset dy="3" input="SourceAlpha"/>
      <feGaussianBlur stdDeviation="3" result="blur"/>
      <feFlood flood-opacity="0.969"/>
      <feComposite operator="in" in2="blur"/>
      <feComposite in="SourceGraphic"/>
    </filter>
  </defs>
  <g transform="matrix(1, 0, 0, 1, 0, 0)" filter="url(#iconfinder_miscellaneous-50_809448)">
    <path id="iconfinder_miscellaneous-50_809448-2" data-name="iconfinder_miscellaneous-50_809448" d="M16.263,4.4a1.445,1.445,0,0,0-1.478,1.4,1.252,1.252,0,0,0,.591,1.12L12.049,11.4,9.462,5.66a1.384,1.384,0,0,0,.887-1.26,1.481,1.481,0,0,0-2.957,0,1.384,1.384,0,0,0,.887,1.26L5.766,11.4l-3.4-4.48A1.252,1.252,0,0,0,2.957,5.8,1.445,1.445,0,0,0,1.478,4.4,1.445,1.445,0,0,0,0,5.8,1.445,1.445,0,0,0,1.478,7.2V17a.681.681,0,0,0,.739.7H15.524a.681.681,0,0,0,.739-.7V7.2a1.445,1.445,0,0,0,1.478-1.4A1.445,1.445,0,0,0,16.263,4.4ZM.739,5.8a.681.681,0,0,1,.739-.7.7.7,0,1,1,0,1.4A.681.681,0,0,1,.739,5.8Zm1.478,6.3V7.83L5.4,12.1ZM15.524,7.97V12.1H12.345ZM8.871,3.7a.7.7,0,1,1,0,1.4.7.7,0,1,1,0-1.4Zm2.661,8.4H6.209L8.871,6.15ZM2.957,16.3V13.5H14.785v2.8ZM16.263,6.5A.7.7,0,1,1,17,5.8.681.681,0,0,1,16.263,6.5Z" transform="translate(9 3)"/>
  </g>
</svg>
