<svg id="delete-photo" xmlns="http://www.w3.org/2000/svg" width="7.98" height="10.941" viewBox="0 0 7.98 10.941">
  <path id="Path_246" data-name="Path 246" d="M176.415,240.36a.243.243,0,0,0,.243.243h6.168a.243.243,0,0,0,.243-.243v-7.873h-6.654v7.873Zm4.694-6.533h.911v5.3h-.911Zm-1.823,0h.911v5.3h-.911Zm-1.823,0h.911v5.3h-.911Z" transform="translate(-175.752 -229.662)" fill="#fff"/>
  <path id="Path_247" data-name="Path 247" d="M127.912,1.117V.243A.243.243,0,0,0,127.669,0h-3.61a.243.243,0,0,0-.243.243V1.42h-1.7a.243.243,0,0,0-.243.243v.615a.243.243,0,0,0,.243.243h7.494a.243.243,0,0,0,.243-.243V1.663a.243.243,0,0,0-.243-.243h-1.7v-.3ZM127,1.371h-2.274V.911H127v.459Z" transform="translate(-121.874)" fill="#fff"/>
</svg>
