<svg xmlns="http://www.w3.org/2000/svg" width="26.467" height="26.394" viewBox="0 0 26.467 26.394">
  <g id="Search" transform="translate(89 -8)">
    <path id="Path_2" data-name="Path 2" d="M3.308,11.547A8.179,8.179,0,0,1,11.579,3.3a8.179,8.179,0,0,1,8.271,8.248A8.179,8.179,0,0,1,11.579,19.8,8.179,8.179,0,0,1,3.308,11.547ZM23.655,25.9a1.635,1.635,0,0,0,2.316-2.309l-5.128-5.114a11.274,11.274,0,0,0,2.316-6.928A11.492,11.492,0,0,0,11.579,0a11.547,11.547,0,1,0,0,23.095,11.347,11.347,0,0,0,6.948-2.309Z" transform="translate(-89 8)" fill="#0c0b0b"/>
  </g>
</svg>
